<svg xmlns="http://www.w3.org/2000/svg" viewBox="0 0 53.54 51.24"><defs><style>.cls-1{fill:#6d6e71;}</style></defs><g id="Layer_2" data-name="Layer 2"><g id="Layer_1-2" data-name="Layer 1"><g id="layer1"><g id="g3"><g id="g5"><g id="g8283"><path id="path7" class="cls-1" d="M29,0V3.36a1.45,1.45,0,0,1,.36,0L51.29,7.74a1.84,1.84,0,0,1-.35,3.65,2.46,2.46,0,0,1-.37,0L29,7v2a1.48,1.48,0,0,1,.3,0l21.91,3.57a1.84,1.84,0,0,1-.29,3.65l-.3,0L29,12.74v1.63a1.14,1.14,0,0,1,.26,0L51.2,17.54a1.84,1.84,0,0,1-.27,3.66l-.26,0L29,18v1.85a1.49,1.49,0,0,1,.21,0l21.92,2.58a1.84,1.84,0,0,1-.21,3.66h-.22L29,23.54V49.05H53.54V4.9ZM49.45,31.88A1.54,1.54,0,1,1,51,30.35,1.54,1.54,0,0,1,49.45,31.88Z"/><path id="path9" class="cls-1" d="M8.18,26c.44,0,.89,0,1.33,0,5.79,0,12,2,12,6.3V47.43A4.06,4.06,0,0,1,21.19,49h6.6V0L8.18,9.81Z"/><path id="path11" class="cls-1" d="M9.51,41.72C4.26,41.72,0,40,0,37.91v3.81c0,2.1,4.26,3.8,9.51,3.8S19,43.82,19,41.72V37.91C19,40,14.77,41.72,9.51,41.72Z"/><path id="path13" class="cls-1" d="M9.51,47.43C4.26,47.43,0,45.73,0,43.62v3.81c0,2.1,4.26,3.81,9.51,3.81S19,49.53,19,47.43V43.62C19,45.73,14.77,47.43,9.51,47.43Z"/><path id="path15" class="cls-1" d="M9.51,28.4C4.26,28.4,0,30.1,0,32.21V36c0,2.11,4.26,3.81,9.51,3.81S19,38.12,19,36v-3.8C19,30.1,14.77,28.4,9.51,28.4Zm0,6.66C4.29,35.06,1,33.37,1,32.21s3.33-2.86,8.56-2.86,8.57,1.69,8.57,2.86S14.74,35.06,9.51,35.06Z"/></g></g></g></g></g></g></svg>