<?xml version="1.0" encoding="UTF-8" standalone="no"?>
<svg
   id="Layer_1"
   data-name="Layer 1"
   viewBox="0 0 387.29 380.9"
   version="1.1"
   sodipodi:docname="calendar.svg"
   inkscape:version="1.1.2 (0a00cf5339, 2022-02-04)"
   xmlns:inkscape="http://www.inkscape.org/namespaces/inkscape"
   xmlns:sodipodi="http://sodipodi.sourceforge.net/DTD/sodipodi-0.dtd"
   xmlns="http://www.w3.org/2000/svg"
   xmlns:svg="http://www.w3.org/2000/svg">
  <defs
     id="defs31" />
  <sodipodi:namedview
     id="namedview29"
     pagecolor="#ffffff"
     bordercolor="#666666"
     borderopacity="1.0"
     inkscape:pageshadow="2"
     inkscape:pageopacity="0.0"
     inkscape:pagecheckerboard="0"
     showgrid="false"
     inkscape:zoom="2.2026779"
     inkscape:cx="193.62795"
     inkscape:cy="190.223"
     inkscape:window-width="2560"
     inkscape:window-height="1043"
     inkscape:window-x="1920"
     inkscape:window-y="0"
     inkscape:window-maximized="1"
     inkscape:current-layer="Layer_1" />
  <path
     d="M616,159v307.1C611.09,482.85,600.21,487,585,487q-163.71-.35-327.44-.15a41.08,41.08,0,0,1-10.11-.89c-12.12-3.14-18.73-12.61-18.73-26.3q0-147.27,0-294.55c0-.88,0-1.76,0-2.65.53-13.93,10.69-24.12,24.64-24.58,5-.17,10.08,0,15.12,0h27.25v4.36c0,11.84-.25,23.7.12,35.54.15,4.67.81,9.71,2.75,13.88,5.2,11.18,14.66,15.95,26.88,15.91,19.75-.07,31-11.17,31-30.83V138H491.27v4.25c0,12-.08,23.95,0,35.92.11,12.2,5.42,21.4,16.62,26.53,7.59,3.49,15.79,3.15,23.77,1.62,13.67-2.62,20.32-10.91,20.41-24.84.08-13.11,0-26.22,0-39.33v-4.11c14.3,0,28.14-.13,42,.12,2.77,0,5.65,1.25,8.23,2.46C610.12,144.28,614,151,616,159ZM253.83,461.91H591V236.2H253.83Z"
     transform="translate(-228.75 -106.1)"
     id="path2" />
  <path
     d="M308.17,150.8c0-9.2-.05-18.4,0-27.59.06-10,6.29-16.29,16.28-16.35a33.32,33.32,0,0,1,8.6.73c6.16,1.65,9.78,5.91,10.81,12.24a31.81,31.81,0,0,1,.35,4.89c0,17.51,0,35,0,52.53,0,6.73-1.6,12.75-8.06,15.86-6.95,3.33-14.26,3.35-21-.55-4.8-2.77-7-7.46-7-13Q308.15,165.16,308.17,150.8Z"
     transform="translate(-228.75 -106.1)"
     id="path4" />
  <path
     d="M539.7,150.79c0,9.2,0,18.39,0,27.59-.06,10.09-6.13,16.21-16.24,16.26a32.48,32.48,0,0,1-9.32-.88c-5.79-1.73-9.16-6-10.1-12a30.76,30.76,0,0,1-.34-4.89c0-17.51,0-35,0-52.54,0-6.74,1.6-12.8,8.05-15.85,6.9-3.27,14.25-3.31,21,.54,4.69,2.67,6.92,7.21,6.95,12.65.05,9.7,0,19.4,0,29.1Z"
     transform="translate(-228.75 -106.1)"
     id="path6" />
  <path
     d="M312.27,438c-6.8,0-13.6,0-20.41,0-4.21,0-5-.86-5.05-5.15q0-17.38,0-34.77c0-4.26.82-5.08,5.11-5.1q20.22-.06,40.44,0c4.41,0,5.28.93,5.29,5.35q0,17.19,0,34.39c0,4.37-.92,5.26-5.35,5.28C325.62,438.06,319,438,312.27,438Z"
     transform="translate(-228.75 -106.1)"
     id="path8" />
  <path
     d="M384.75,393c6.8,0,13.61,0,20.41,0,4.18,0,5.11,1,5.12,5.15q0,17.38,0,34.77c0,4.13-1,5.09-5.16,5.1-13.6,0-27.21,0-40.81,0-3.55,0-4.94-1.44-4.91-5q.18-17.58,0-35.15c0-3.61,1.47-5,4.94-5C371.15,393.06,378,393,384.75,393Z"
     transform="translate(-228.75 -106.1)"
     id="path10" />
  <path
     d="M457.19,438c-6.68,0-13.35,0-20,0-4.24,0-5.08-.86-5.09-5.11q0-17.39,0-34.77c0-4.27.82-5.12,5.06-5.14,13.61,0,27.22,0,40.82,0,3.45,0,5,1.35,5,5q-.17,17.56,0,35.15c0,3.57-1.46,5-5,5C471.05,438,464.12,438,457.19,438Z"
     transform="translate(-228.75 -106.1)"
     id="path12" />
  <path
     d="M530.05,438c-6.8,0-13.61-.07-20.41,0-3.47.05-5-1.29-5-4.91.12-11.84.1-23.68,0-35.52,0-3.22,1.33-4.65,4.47-4.64h42c3.14,0,4.49,1.53,4.47,4.7q-.12,17.76,0,35.52c0,3.67-1.69,4.89-5.1,4.85C543.66,438,536.85,438,530.05,438Z"
     transform="translate(-228.75 -106.1)"
     id="path14" />
  <path
     d="M457.19,266.92c6.93,0,13.85.08,20.78,0,3.49-.05,5,1.3,5,4.91q-.18,17.56,0,35.14c0,3.58-1.46,4.93-5,4.91q-20.59-.13-41.19,0c-3.37,0-4.76-1.36-4.74-4.74q.12-17.75,0-35.51c0-3.42,1.42-4.75,4.76-4.7C443.59,267,450.39,266.92,457.19,266.92Z"
     transform="translate(-228.75 -106.1)"
     id="path16" />
  <path
     d="M530.19,311.8c-6.92,0-13.85-.07-20.77,0-3.37.05-4.78-1.32-4.75-4.72q.13-17.75,0-35.51c0-3.42,1.39-4.74,4.73-4.72q20.6.11,41.18,0c3.48,0,5,1.27,5,4.89q-.17,17.57,0,35.14c0,3.57-1.43,5-5,4.93C543.8,311.71,537,311.8,530.19,311.8Z"
     transform="translate(-228.75 -106.1)"
     id="path18" />
  <path
     d="M312.27,330c6.93,0,13.85.05,20.78,0,3.15,0,4.64,1.28,4.62,4.5,0,12-.06,23.92,0,35.89,0,3.21-1.4,4.55-4.56,4.54q-21-.08-41.93,0c-3.27,0-4.43-1.54-4.41-4.66q.11-17.76,0-35.51c0-3.35,1.32-4.82,4.72-4.77C298.42,330,305.34,330,312.27,330Z"
     transform="translate(-228.75 -106.1)"
     id="path20" />
  <path
     d="M384.5,374.84c-6.8,0-13.6-.07-20.4,0-3.38.05-4.72-1.37-4.69-4.76q.15-17.75,0-35.51c0-3.42,1.45-4.7,4.79-4.68q20.6.13,41.18,0c3.56,0,5,1.44,4.94,5q-.13,17.57,0,35.13c0,3.65-1.6,4.91-5.05,4.86C398.36,374.77,391.43,374.84,384.5,374.84Z"
     transform="translate(-228.75 -106.1)"
     id="path22" />
  <path
     d="M457.4,330c6.93,0,13.85.07,20.78,0,3.37-.05,4.77,1.38,4.75,4.75q-.12,17.76,0,35.51c0,3.14-1.2,4.67-4.43,4.67q-21-.06-41.94,0c-3.17,0-4.55-1.31-4.53-4.54q.12-17.94,0-35.89c0-3.21,1.41-4.54,4.58-4.5C443.55,330,450.47,330,457.4,330Z"
     transform="translate(-228.75 -106.1)"
     id="path24" />
  <path
     d="M530.1,330c6.8,0,13.61.09,20.4,0,3.47-.06,5.1,1.2,5.06,4.84q-.13,17.76,0,35.51c0,3.2-1.34,4.6-4.52,4.59q-21-.06-41.94,0c-2.91,0-4.43-1.11-4.42-4.23q.09-18.14,0-36.27c0-3.28,1.53-4.46,4.64-4.42C516.25,330,523.18,330,530.1,330Z"
     transform="translate(-228.75 -106.1)"
     id="path26" />
</svg>
