<svg xmlns="http://www.w3.org/2000/svg" viewBox="0 0 48.99 40.83"><defs><style>.cls-1{fill:#6d6e71;}</style></defs><g id="Layer_2" data-name="Layer 2"><g id="Layer_1-2" data-name="Layer 1"><path class="cls-1" d="M48.48,23.12,42.2,3.8a5.27,5.27,0,0,0-2-2.75A5.41,5.41,0,0,0,37,0H12A5.44,5.44,0,0,0,8.8,1.05a5.38,5.38,0,0,0-2,2.75L.51,23.12A8.85,8.85,0,0,0,0,25.52v10.2a4.92,4.92,0,0,0,1.5,3.61,4.91,4.91,0,0,0,3.6,1.5H43.89A5.12,5.12,0,0,0,49,35.72V25.52A8.85,8.85,0,0,0,48.48,23.12ZM10.69,5a1.24,1.24,0,0,1,.51-.69A1.4,1.4,0,0,1,12,4.08H37a1.42,1.42,0,0,1,.83.27,1.34,1.34,0,0,1,.51.69l5,15.37H5.68ZM44.91,35.72a1,1,0,0,1-1,1H5.1a1,1,0,0,1-.71-.3,1,1,0,0,1-.31-.72V25.52a1,1,0,0,1,.31-.72,1,1,0,0,1,.71-.3H43.89a1,1,0,0,1,1,1v10.2Z"/><path class="cls-1" d="M30.62,28.07a2.56,2.56,0,1,0,1.8.75A2.45,2.45,0,0,0,30.62,28.07Z"/><path class="cls-1" d="M38.79,28.07a2.56,2.56,0,1,0,1.8.75A2.46,2.46,0,0,0,38.79,28.07Z"/></g></g></svg>