<svg xmlns="http://www.w3.org/2000/svg" viewBox="0 0 52.82 52.82"><defs><style>.cls-1{fill:#6d6e71;}</style></defs><g id="Layer_2" data-name="Layer 2"><g id="Layer_1-2" data-name="Layer 1"><path class="cls-1" d="M15.41,0H8.8A8.8,8.8,0,0,0,0,8.8v6.61a8.8,8.8,0,0,0,8.8,8.8h6.61a8.8,8.8,0,0,0,8.8-8.8V8.8A8.8,8.8,0,0,0,15.41,0Zm4.4,15.41a4.4,4.4,0,0,1-4.4,4.4H8.8a4.4,4.4,0,0,1-4.4-4.4V8.8A4.4,4.4,0,0,1,8.8,4.4h6.61a4.4,4.4,0,0,1,4.4,4.4Z"/><path class="cls-1" d="M15.41,28.61H8.8A8.8,8.8,0,0,0,0,37.41V44a8.8,8.8,0,0,0,8.8,8.8h6.61a8.8,8.8,0,0,0,8.8-8.8V37.41A8.8,8.8,0,0,0,15.41,28.61ZM19.81,44a4.4,4.4,0,0,1-4.4,4.4H8.8A4.4,4.4,0,0,1,4.4,44V37.41A4.4,4.4,0,0,1,8.8,33h6.61a4.4,4.4,0,0,1,4.4,4.4Z"/><path class="cls-1" d="M44,28.61H37.41a8.8,8.8,0,0,0-8.8,8.8V44a8.8,8.8,0,0,0,8.8,8.8H44a8.8,8.8,0,0,0,8.8-8.8V37.41A8.8,8.8,0,0,0,44,28.61ZM48.42,44a4.4,4.4,0,0,1-4.4,4.4H37.41A4.4,4.4,0,0,1,33,44V37.41a4.4,4.4,0,0,1,4.4-4.4H44a4.4,4.4,0,0,1,4.4,4.4Z"/><path class="cls-1" d="M30.81,15.41H48.42a2.21,2.21,0,0,0,0-4.41H30.81a2.21,2.21,0,0,0,0,4.41Z"/></g></g></svg>