<svg xmlns="http://www.w3.org/2000/svg" viewBox="0 0 59.25 59.28"><defs><style>.cls-1{fill:#6d6e71;}</style></defs><g id="Layer_2" data-name="Layer 2"><g id="Layer_1-2" data-name="Layer 1"><path class="cls-1" d="M56.78,27.17a2.46,2.46,0,0,0-2.47,2.47A24.8,24.8,0,1,1,47.14,12.3l-.24,0H39.49a2.47,2.47,0,1,0,0,4.94H46.9a7.41,7.41,0,0,0,7.41-7.41V2.47a2.47,2.47,0,1,0-4.94,0v5.1a29.62,29.62,0,1,0,9.88,22.07A2.47,2.47,0,0,0,56.78,27.17Z"/><path class="cls-1" d="M29.61,14.82a2.46,2.46,0,0,0-2.47,2.47V29.64a2.47,2.47,0,0,0,.72,1.74l7.41,7.41a2.47,2.47,0,0,0,3.49-3.49l-6.68-6.68V17.29a2.47,2.47,0,0,0-2.47-2.47Z"/></g></g></svg>