<svg xmlns="http://www.w3.org/2000/svg" viewBox="0 0 40.39 40.39"><defs><style>.cls-1{fill:#6d6e71;}</style></defs><g id="Layer_2" data-name="Layer 2"><g id="Layer_1-2" data-name="Layer 1"><path class="cls-1" d="M40.39,20.22A20.2,20.2,0,1,1,20.21,0,20.21,20.21,0,0,1,40.39,20.22ZM9.82,34.71c0-1.29,0-2.53,0-3.77A6.9,6.9,0,0,1,10,29.5a6,6,0,0,1,6-4.71h8.54a8.29,8.29,0,0,1,1.1.09,5.89,5.89,0,0,1,4.88,4.88c.15,1.36.08,2.74.11,4.11,0,.27,0,.54,0,.85A17.77,17.77,0,0,0,37.6,16a17.91,17.91,0,0,0-34.9.43A17.68,17.68,0,0,0,9.82,34.71Z"/><path class="cls-1" d="M20.15,21.05a6.2,6.2,0,1,1,.4-12.38,6.2,6.2,0,0,1-.4,12.38Z"/></g></g></svg>