<svg xmlns="http://www.w3.org/2000/svg" viewBox="0 0 60.3 60.23"><defs><style>.cls-1{fill:#6d6e71;}</style></defs><g id="Layer_2" data-name="Layer 2"><g id="Layer_1-2" data-name="Layer 1"><path class="cls-1" d="M48.58,36.81A11.67,11.67,0,0,0,39,41.89L22.62,34.51a11.48,11.48,0,0,0,0-8.75l16.31-7.41a11.68,11.68,0,1,0-2.08-6.64,10.9,10.9,0,0,0,.21,2L19.72,21.57a11.71,11.71,0,1,0,0,17.13l17.38,7.85a13,13,0,0,0-.2,2A11.72,11.72,0,1,0,48.59,36.81ZM48.58,5a6.7,6.7,0,1,1-6.69,6.7h0A6.7,6.7,0,0,1,48.58,5ZM11.78,36.81a6.7,6.7,0,1,1,6.69-6.7h0A6.7,6.7,0,0,1,11.78,36.81Zm36.8,18.4a6.69,6.69,0,1,1,6.7-6.69h0A6.7,6.7,0,0,1,48.58,55.21Z"/></g></g></svg>